<?xml version="1.0" encoding="utf-8"?>
<!-- Generator: Adobe Illustrator 23.1.1, SVG Export Plug-In . SVG Version: 6.00 Build 0)  -->
<svg version="1.1" id="Layer_1" xmlns="http://www.w3.org/2000/svg" xmlns:xlink="http://www.w3.org/1999/xlink" x="0px" y="0px"
	 viewBox="0 0 100 100" style="enable-background:new 0 0 100 100;" xml:space="preserve">
<style type="text/css">
	.st0{fill:#FFFFFF;}
</style>
<g>
	<path class="st0" d="M94.8,55.2l-4.2-12.4c0-0.1-0.1-0.3-0.2-0.4c0,0,0,0,0-0.1c-0.1-0.2-0.2-0.3-0.3-0.5c0,0-0.1-0.1-0.1-0.1
		c-0.1-0.1-0.2-0.2-0.4-0.3c0,0,0,0-0.1-0.1L50.5,18.2c-0.8-0.5-1.8-0.5-2.6,0L11.8,40.3c0,0,0,0-0.1,0.1c-0.1,0.1-0.3,0.2-0.4,0.3
		c0,0-0.1,0.1-0.1,0.1c-0.1,0.1-0.2,0.2-0.3,0.3c0,0-0.1,0.1-0.1,0.1c0,0,0,0,0,0.1L5.3,52.6c-0.6,1.2-0.1,2.6,1,3.3l46.3,26
		c0.4,0.2,0.8,0.3,1.2,0.3c0.5,0,0.9-0.1,1.3-0.4l38.5-23.6C94.7,57.5,95.2,56.3,94.8,55.2z M49.2,23.3l34.2,20.4L53.2,62.3L18,42.4
		L49.2,23.3z M53.9,76.7l-43-24.1l3.3-6.7L52,67.4c0.4,0.2,0.8,0.3,1.2,0.3c0.5,0,0.9-0.1,1.3-0.4l32.3-19.9l2.5,7.5L53.9,76.7z"/>
	<path class="st0" d="M44.9,37l5-3.2l5.3,3.6c0.4,0.3,0.9,0.4,1.4,0.4c0.8,0,1.6-0.4,2.1-1.1c0.8-1.1,0.5-2.7-0.7-3.5l-6.6-4.5
		c-0.8-0.6-1.9-0.6-2.7,0l-6.4,4c-1.2,0.7-1.5,2.3-0.8,3.4C42.2,37.4,43.8,37.7,44.9,37z"/>
	<path class="st0" d="M57.9,55c0.8,0,1.6-0.4,2.1-1.1c0.8-1.1,0.5-2.7-0.7-3.5L52.7,46c-0.8-0.5-1.9-0.6-2.7,0l-6.2,3.9
		c-1.2,0.7-1.5,2.3-0.8,3.4c0.7,1.2,2.3,1.5,3.4,0.8l4.9-3l5.3,3.6C57,54.9,57.4,55,57.9,55z"/>
	<path class="st0" d="M55.9,45c0.8,1.1,2.3,1.4,3.5,0.6l4.6-3.2l5.2,3.5c0.4,0.3,0.9,0.4,1.4,0.4c0.8,0,1.6-0.4,2.1-1.1
		c0.8-1.1,0.5-2.7-0.7-3.5l-6.6-4.5c-0.9-0.6-2-0.6-2.8,0l-6,4.2C55.4,42.3,55.1,43.9,55.9,45z"/>
	<path class="st0" d="M45.7,45.3c0.8-1.1,0.5-2.7-0.7-3.5l-6.6-4.5c-0.8-0.5-1.9-0.6-2.7,0l-6.4,4c-1.2,0.7-1.5,2.3-0.8,3.4
		c0.7,1.2,2.3,1.5,3.4,0.8l5-3.1l5.3,3.6c0.4,0.3,0.9,0.4,1.4,0.4C44.4,46.4,45.2,46,45.7,45.3z"/>
</g>
</svg>
